<svg width="276" height="40" viewBox="0 0 276 40" fill="none" xmlns="http://www.w3.org/2000/svg">
<path d="M1.184 15V3.8H2.528V15H1.184ZM5.02275 15V7.064H6.23875L6.35075 8.584C6.59608 8.06133 6.96942 7.64533 7.47075 7.336C7.97208 7.02667 8.59075 6.872 9.32675 6.872V8.28H8.95875C8.48942 8.28 8.05742 8.36533 7.66275 8.536C7.26808 8.696 6.95342 8.97333 6.71875 9.368C6.48408 9.76267 6.36675 10.3067 6.36675 11V15H5.02275ZM11.4672 15V8.2H10.2672V7.064H11.4672V5.688C11.4672 4.92 11.6592 4.36 12.0432 4.008C12.4272 3.656 12.9872 3.48 13.7232 3.48H14.5232V4.632H13.9312C13.5259 4.632 13.2379 4.71733 13.0672 4.888C12.8966 5.048 12.8112 5.32533 12.8112 5.72V7.064H14.7632V8.2H12.8112V15H11.4672ZM18.8909 15.192C18.2295 15.192 17.6802 15.08 17.2429 14.856C16.8055 14.632 16.4802 14.3333 16.2669 13.96C16.0535 13.5867 15.9469 13.1813 15.9469 12.744C15.9469 11.9333 16.2562 11.3093 16.8749 10.872C17.4935 10.4347 18.3362 10.216 19.4029 10.216H21.5469V10.12C21.5469 9.42667 21.3655 8.904 21.0029 8.552C20.6402 8.18933 20.1549 8.008 19.5469 8.008C19.0242 8.008 18.5709 8.14133 18.1869 8.408C17.8135 8.664 17.5789 9.04267 17.4829 9.544H16.1069C16.1602 8.968 16.3522 8.48267 16.6829 8.088C17.0242 7.69333 17.4455 7.39467 17.9469 7.192C18.4482 6.97867 18.9815 6.872 19.5469 6.872C20.6562 6.872 21.4882 7.17067 22.0429 7.768C22.6082 8.35467 22.8909 9.13867 22.8909 10.12V15H21.6909L21.6109 13.576C21.3869 14.024 21.0562 14.408 20.6189 14.728C20.1922 15.0373 19.6162 15.192 18.8909 15.192ZM19.0989 14.056C19.6109 14.056 20.0482 13.9227 20.4109 13.656C20.7842 13.3893 21.0669 13.0427 21.2589 12.616C21.4509 12.1893 21.5469 11.7413 21.5469 11.272V11.256H19.5149C18.7255 11.256 18.1655 11.3947 17.8349 11.672C17.5149 11.9387 17.3549 12.2747 17.3549 12.68C17.3549 13.096 17.5042 13.432 17.8029 13.688C18.1122 13.9333 18.5442 14.056 19.0989 14.056ZM25.1071 15V7.064H26.3231L26.4031 8.488C26.6591 7.98667 27.0271 7.592 27.5071 7.304C27.9871 7.016 28.5311 6.872 29.1391 6.872C30.0778 6.872 30.8245 7.16 31.3791 7.736C31.9445 8.30133 32.2271 9.176 32.2271 10.36V15H30.8831V10.504C30.8831 8.85067 30.2005 8.024 28.8351 8.024C28.1525 8.024 27.5818 8.27467 27.1231 8.776C26.6751 9.26667 26.4511 9.97067 26.4511 10.888V15H25.1071Z" fill="black"/>
<path d="M8.00004 25.3333L10.06 29.5067L14.6667 30.18L11.3334 33.4267L12.12 38.0133L8.00004 35.8467L3.88004 38.0133L4.66671 33.4267L1.33337 30.18L5.94004 29.5067L8.00004 25.3333Z" fill="#FFC120" stroke="#FFC120" stroke-width="1.5" stroke-linecap="round" stroke-linejoin="round"/>
<path d="M29 25.3333L31.06 29.5067L35.6667 30.18L32.3334 33.4267L33.12 38.0133L29 35.8467L24.88 38.0133L25.6667 33.4267L22.3334 30.18L26.94 29.5067L29 25.3333Z" fill="#FFC120" stroke="#FFC120" stroke-width="1.5" stroke-linecap="round" stroke-linejoin="round"/>
<path d="M50 25.3333L52.06 29.5067L56.6667 30.18L53.3334 33.4267L54.12 38.0133L50 35.8467L45.88 38.0133L46.6667 33.4267L43.3334 30.18L47.94 29.5067L50 25.3333Z" fill="#FFC120" stroke="#FFC120" stroke-width="1.5" stroke-linecap="round" stroke-linejoin="round"/>
<path d="M71 25.3333L73.06 29.5067L77.6667 30.18L74.3334 33.4267L75.12 38.0133L71 35.8467L66.88 38.0133L67.6667 33.4267L64.3334 30.18L68.94 29.5067L71 25.3333Z" fill="#FFC120" stroke="#FFC120" stroke-width="1.5" stroke-linecap="round" stroke-linejoin="round"/>
<path d="M92 25.3333L94.06 29.5067L98.6667 30.18L95.3334 33.4267L96.12 38.0133L92 35.8467L87.88 38.0133L88.6667 33.4267L85.3334 30.18L89.94 29.5067L92 25.3333Z" fill="#FFC120" stroke="#FFC120" stroke-width="1.5" stroke-linecap="round" stroke-linejoin="round"/>
</svg>
